<svg xmlns="http://www.w3.org/2000/svg" viewBox="0 0 430 266" role="img" aria-labelledby="title desc">
  <title id="title">INFRA TECH</title>
  <desc id="desc">Logo da Infra Tech com icone de conexao em azul e texto branco.</desc>
  <defs>
    <linearGradient id="bg" x1="0" x2="1" y1="0" y2="1">
      <stop offset="0" stop-color="#020817"/>
      <stop offset="1" stop-color="#071326"/>
    </linearGradient>
  </defs>
  <rect width="430" height="266" fill="url(#bg)"/>
  <g transform="translate(75 61)" fill="none" stroke="#2f93d1" stroke-linecap="round" stroke-linejoin="round">
    <path d="M18 0h82c10 0 18 8 18 18v76c0 10-8 18-18 18H88v-24c0-8-7-15-15-15H61v34H45V73H33c-8 0-15 7-15 15v24H18c-10 0-18-8-18-18V18C0 8 8 0 18 0Z" stroke-width="3.3"/>
    <path d="M29 42c18-16 49-16 67 0" stroke-width="5.2"/>
    <path d="M43 58c11-9 29-9 40 0" stroke-width="5.2"/>
    <path d="M54 73c5-4 13-4 18 0" stroke-width="5.2"/>
    <circle cx="63" cy="91" r="6.5" fill="#2f93d1" stroke="none"/>
  </g>
  <g fill="#f8fafc" font-family="Arial, Helvetica, sans-serif" font-weight="800" letter-spacing="4">
    <text x="191" y="111" font-size="61">INFRA</text>
    <text x="191" y="177" font-size="61">TECH</text>
  </g>
</svg>
